<?xml version="1.0" encoding="utf-8"?>
<!-- Generator: Adobe Illustrator 21.1.0, SVG Export Plug-In . SVG Version: 6.00 Build 0)  -->
<svg version="1.1" id="Layer_1" xmlns="http://www.w3.org/2000/svg" xmlns:xlink="http://www.w3.org/1999/xlink" x="0px" y="0px"
	 viewBox="0 0 1240 1240" style="enable-background:new 0 0 1240 1240;" xml:space="preserve">
<style type="text/css">
	.st0{fill:#B99CE6;}
	.st1{fill:#764ABC;}
</style>
<g>
	<path class="st0" d="M341.6,1146.2c3,0.5,6,1,9.1,1.4c33.3,4.2,66.6,3.8,99.7-1.4H341.6z M1136.1,1196.7
		c-8.7-21.1-17.5-42.2-26.2-63.3c-48.3,48.4-124.6,86.6-219,86.6h253.9C1141.6,1211.4,1139.1,1203.9,1136.1,1196.7z M341.6,1146.2
		c3,0.5,6,1,9.1,1.4c33.3,4.2,66.6,3.8,99.7-1.4H341.6z M842.9,488.5c3.6,15.7,5.7,29.8,6.4,41.2c3.5,0.8,7.6,1.9,11.9,3
		C855.1,517.9,849,503.2,842.9,488.5z M341.6,1146.2c3,0.5,6,1,9.1,1.4c33.3,4.2,66.6,3.8,99.7-1.4H341.6z M341.6,1146.2
		c3,0.5,6,1,9.1,1.4c33.3,4.2,66.6,3.8,99.7-1.4H341.6z"/>
	<path class="st0" d="M890.9,1220H95.2c2.8-7.2,5.1-13.4,7.7-19.4c16.3-37.1,32.5-74.2,48.8-111.4c11.6-26.4,23.1-52.8,34.7-79.2
		c49.5-113,99.1-226.1,148.6-339.1c5.2,43,15.6,84.5,29.9,124c-43.7,99.4-87.4,198.7-131.1,298.2c-7.8,17.7-15.6,35.4-23.4,53.2
		h131.2c3,0.5,6,1,9.1,1.4c33.3,4.2,66.6,3.8,99.7-1.4h309.2c-13.5,11.2-29.3,23.4-41.6,32.2C775.6,1205.3,834.6,1220,890.9,1220z"
		/>
	<path class="st0" d="M1082.4,1067c-38.3,59.2-97.2,91.3-172.8,91.3c-30.8,0-60.7-5.3-85.6-12.1h114.8
		c-30.3-74.4-60.5-148.7-90.6-222.9c0.8-1.6,1.6-3.3,2.4-5c38.9-4,68.4-37.5,67-77.8c-1.3-40.2-34.9-72.4-75.1-72.4h-2.7
		c-18.2,0.6-34.6,7.6-47.2,18.8c-20.6-50.5-41.1-101.1-61.7-151.7c-9.1-22.3-18.1-44.6-27.2-66.9c-37.3-91.8-74.8-183.9-112.4-276.5
		c-0.9-2.1-1.7-4.2-2.6-6.3c-1.2,2.7-2.3,5.3-3.5,8c-60.2,136.8-119.9,272.6-179.5,408.2c-8.2-43.4-10.4-88.2-7-134.6
		c1.4-21.6,4.4-42.4,8.9-62.4c18.3-41.7,36.5-83.4,54.8-125.1c19.2-43.8,38.4-87.6,57.6-131.4c30.8-70.2,61.5-140.5,92.3-210.7
		c4.8-11.1,9.5-17.8,23.8-17.6c13.6,0.2,16.1,8.1,19.9,17.3c28.7,69.4,57.4,138.7,86.1,208.1c18.4,44.5,36.8,89,55.2,133.5
		c15.1,36.5,30.2,73.1,45.4,109.6c3.6,15.7,5.7,29.8,6.4,41.2c3.5,0.8,7.6,1.9,11.9,3c10.9,26.4,21.9,52.9,32.8,79.3
		c12.9,31.1,25.8,62.2,38.6,93.3C982.6,825.9,1032.5,946.4,1082.4,1067z"/>
</g>
<g>
	<path class="st1" d="M778.3,1130.2c-5.1,4.6-11.6,10.2-18.7,16.1H824C805.5,1141.2,789.7,1135.3,778.3,1130.2z M703.9,568.5
		c-13.5-0.9-27.1-1.3-40.9-1.3h-21.4C629.5,543.1,604,527,575.9,527h-2.7c-41.6,1.3-73.7,36.2-72.4,77.8
		c1.3,40.2,34.9,72.4,75.1,72.4h2.7c29.5-1.3,55-20.1,65.7-45.6h24.1c21.2,0,42.1,1.3,62.7,3.8C722,613.1,713,590.8,703.9,568.5z
		 M588.9,285.6c-1.2,2.7-2.3,5.3-3.5,8c2-0.6,4.1-1.1,6.1-1.6C590.6,289.8,589.7,287.7,588.9,285.6z M742.3,245.4
		c18.4,44.5,36.8,89,55.2,133.5c22.8,36,37.6,76.3,45.4,109.6c3.6,15.7,5.7,29.8,6.4,41.2c3.5,0.8,7.6,1.9,11.9,3
		c17.1,4.7,39.1,11.7,55.1,17.1C904.7,392.3,831,289.8,742.3,245.4z M276.9,685.1C94,817.6,101.1,994,151.7,1089.2
		c11.6-26.4,23.1-52.8,34.7-79.2c-14.3-48.5-8.9-98.9,16.8-149.3c25.5-50.9,65.7-88.5,91.2-107.2C289,736.1,281,706.6,276.9,685.1z
		 M233.8,1093.1c-7.8,17.7-15.6,35.4-23.4,53.2h131.2C297.5,1138.8,261,1120.9,233.8,1093.1z"/>
	<path class="st1" d="M850.6,918.4c-0.8,1.7-1.6,3.3-2.4,5c-48.1,96.4-119.2,172.4-209.5,222.9H450.4c40.1-6.3,79.8-19.6,118.8-40.2
		c104.5-55,174.2-120.6,219.8-210.5c-12.1-12.1-20.1-29.5-21.5-49.6c-0.8-23.4,9.1-44.6,25.2-59c12.6-11.2,29-18.2,47.2-18.8h2.7
		c40.2,0,73.7,32.2,75.1,72.4C919,880.9,889.5,914.4,850.6,918.4z"/>
	<path class="st1" d="M483.4,1013.6h-2.7c-40.2,0-73.7-32.2-75.1-72.4c-1.3-14.8,2.7-29.5,9.4-38.9c-19.4-33.6-36.5-69.6-50.1-107.4
		c-14.2-39.5-24.6-81.1-29.9-124c-9.2-74.9-2.7-154.2,26.3-235.1c29.2-85,87.7-151.9,158.8-187.5c-19.2,43.8-38.4,87.6-57.6,131.4
		c-26.1,37.3-44.4,79-54.8,125.1c-4.5,20-7.5,40.8-8.9,62.4c-3.5,46.4-1.2,91.2,7,134.6c10.7,56.9,31.5,111.3,62.7,163
		c2.7-1.3,6.7-1.3,9.4-1.3h2.7c40.2,0,73.7,32.2,75.1,72.4C557.1,977.4,524.9,1012.2,483.4,1013.6z"/>
	<path class="st1" d="M1150.9,1077.8c-9.7,18.9-23.5,37.9-41,55.5c-48.3,48.4-124.6,86.6-219,86.6c-56.3,0-115.3-14.7-172.9-41.6
		c12.3-8.8,28.1-21,41.6-32.2H824c25,6.8,54.8,12.1,85.6,12.1c75.6,0,134.5-32.1,172.8-91.3c3.8-5.9,7.4-12.1,10.9-18.6
		c24.1-46.9,25.5-101.9,2.7-158.2c-26.8-69.7-75.1-127.3-142.1-171.6c-7-4.6-14.1-9.1-21.2-13.3c-12.9-31.1-25.8-62.2-38.6-93.3
		c74.6,31.3,140,78.6,192.5,140.2C1187.1,866,1189.8,1000.1,1150.9,1077.8z"/>
</g>
</svg>
